<svg width="84" height="84" viewBox="0 0 84 84" fill="none" xmlns="http://www.w3.org/2000/svg">
<g filter="url(#filter0_d)">
<path d="M42 69C59.1208 69 73 55.1208 73 38C73 20.8792 59.1208 7 42 7C24.8792 7 11 20.8792 11 38C11 55.1208 24.8792 69 42 69Z" fill="black"/>
<path fill-rule="evenodd" clip-rule="evenodd" d="M42 22C33.2 22 26 29.2 26 38C26 44.5316 29.893 50.1323 35.4211 52.6221C36.3842 53.0558 38 53.4562 38 52.4C38 51.0144 36.6794 50.0711 35.3193 49.8062C33.575 49.4664 32.8883 48.282 32.6778 47.8032C32.6194 47.6702 32.5746 47.5312 32.5174 47.3977C32.2933 46.8744 32.0368 46.4713 31.7915 46.1649C31.2404 45.4764 29.7567 44.4501 30.6292 44.3216C30.9665 44.2719 31.0747 44.295 31.4048 44.3806C32.5385 44.6746 33.2263 45.635 33.3712 45.8549C33.3912 45.8852 33.4096 45.9167 33.4283 45.9478C34.6284 47.9527 36.4682 47.7342 37.5965 47.3804C37.9106 47.282 38.13 46.8843 38.2231 46.5686C38.4326 45.8586 38.0098 44.9669 37.2898 44.7949C34.3581 44.0947 31.8 42.2721 31.8 37.2C31.8 36.4526 31.916 35.7439 32.1309 35.0909C32.6115 33.6306 33.0439 32.5916 33.082 31.0548C33.1097 29.9401 34.2691 28.5832 35.3251 28.9413C35.5088 29.0036 35.7082 29.0794 35.9238 29.1713C37.3027 29.7593 38.8259 29.994 40.3193 29.8644C40.8673 29.8169 41.4252 29.8 42 29.8C42.5576 29.8 43.0993 29.8317 43.6314 29.8889C45.1566 30.0526 46.6857 29.7276 48.0944 29.1206C48.2464 29.0552 48.3902 28.9983 48.5262 28.9491C49.6769 28.5321 50.9188 30.0115 50.8864 31.235C50.8472 32.7193 51.3224 33.5217 51.8241 34.9192C52.0678 35.5983 52.2 36.3551 52.2 37.2C52.2 41.449 50.4048 43.4176 48.0987 44.3562C46.9533 44.8225 46 46.8633 46 48.1C46 50.2 46 52 46 52.5C46 53.5382 47.6049 53.1499 48.5474 52.7145C54.0922 50.1535 58 44.544 58 38C58 29.2 50.8 22 42 22Z" fill="black"/>
<path fill-rule="evenodd" clip-rule="evenodd" d="M42 6C24.3269 6 10 20.3269 10 38C10 55.6731 24.3269 70 42 70C59.6731 70 74 55.6731 74 38C74 20.3269 59.6731 6 42 6ZM47.1 53.2C46.3 53.4 46 52.9 46 52.4C46 51.9 46 50.1 46 48C46 46.7633 46.9542 44.7307 48.1033 44.2736C50.4072 43.3573 52.2 41.4157 52.2 37.1C52.2 36.3526 52.084 35.6439 51.8691 34.9909C51.3885 33.5306 50.9561 32.4916 50.918 30.9548C50.8904 29.8401 49.7309 28.4832 48.6749 28.8413C48.4912 28.9036 48.2918 28.9794 48.0762 29.0713C46.6973 29.6593 45.1741 29.894 43.6807 29.7644C43.1327 29.7169 42.5748 29.7 42 29.7C41.4424 29.7 40.9007 29.7317 40.3686 29.7889C38.8434 29.9526 37.3143 29.6276 35.9056 29.0206C35.7536 28.9552 35.6098 28.8983 35.4738 28.8491C34.3231 28.4321 33.0812 29.9115 33.1136 31.135C33.1528 32.6193 32.6776 33.4217 32.1759 34.8192C31.9322 35.4983 31.8 36.2551 31.8 37.1C31.8 42.1228 34.3086 43.959 37.2044 44.6742C37.8939 44.8445 38.354 45.8606 38.1906 46.5518C38.1247 46.8306 37.9404 47.1763 37.6692 47.2684C36.6444 47.6164 34.8582 47.858 33.5675 46.0508C33.451 45.8876 33.3545 45.7106 33.237 45.5482C32.9761 45.1874 32.3986 44.5397 31.4807 44.2934C31.1015 44.1917 30.9471 44.1599 30.5614 44.233C29.7449 44.3876 31.1965 45.3863 31.7202 46.0315C31.957 46.3232 32.2144 46.7061 32.46 47.2017C32.5573 47.3981 32.6282 47.6061 32.7241 47.8032C32.9803 48.3298 33.6864 49.388 35.3193 49.7062C36.6793 49.9711 38 50.9144 38 52.3C38 53.3389 36.3909 52.966 35.4382 52.5517C29.901 50.1438 26 44.5383 26 38C26 29.2 33.2 22 42 22C50.8 22 58 29.2 58 38C58 45.1 53.4 51.1 47.1 53.2Z" fill="white"/>
</g>
<defs>
<filter id="filter0_d" x="0" y="0" width="84" height="84" filterUnits="userSpaceOnUse" color-interpolation-filters="sRGB">
<feFlood flood-opacity="0" result="BackgroundImageFix"/>
<feColorMatrix in="SourceAlpha" type="matrix" values="0 0 0 0 0 0 0 0 0 0 0 0 0 0 0 0 0 0 127 0"/>
<feOffset dy="4"/>
<feGaussianBlur stdDeviation="5"/>
<feColorMatrix type="matrix" values="0 0 0 0 0 0 0 0 0 0 0 0 0 0 0 0 0 0 0.22 0"/>
<feBlend mode="normal" in2="BackgroundImageFix" result="effect1_dropShadow"/>
<feBlend mode="normal" in="SourceGraphic" in2="effect1_dropShadow" result="shape"/>
</filter>
</defs>
</svg>
