<svg width="82" height="82" viewBox="0 0 82 82" fill="none" xmlns="http://www.w3.org/2000/svg">
<g filter="url(#filter0_d)">
<path d="M41 68C58.1208 68 72 54.1208 72 37C72 19.8792 58.1208 6 41 6C23.8792 6 10 19.8792 10 37C10 54.1208 23.8792 68 41 68Z" fill="#1565C0"/>
<path fill-rule="evenodd" clip-rule="evenodd" d="M29.4 49H34.8V31.6H29.4V49ZM32.1 23C30.4 23 29 24.4 29 26.1C29 27.8 30.4 29.2 32.1 29.2C33.8 29.2 35.2 27.8 35.2 26.1C35.2 24.4 33.8 23 32.1 23ZM48.5 31.2C45.9 31.2 44.1 32.6 43.4 34H43.3V31.6H38.1V49H43.5V40.4C43.5 38.1 43.9 35.9 46.7 35.9C49.5 35.9 49.5 38.5 49.5 40.5V49H55V39.5C55 34.8 54 31.2 48.5 31.2Z" fill="white"/>
</g>
<defs>
<filter id="filter0_d" x="-1" y="-1" width="84" height="84" filterUnits="userSpaceOnUse" color-interpolation-filters="sRGB">
<feFlood flood-opacity="0" result="BackgroundImageFix"/>
<feColorMatrix in="SourceAlpha" type="matrix" values="0 0 0 0 0 0 0 0 0 0 0 0 0 0 0 0 0 0 127 0"/>
<feOffset dy="4"/>
<feGaussianBlur stdDeviation="5"/>
<feColorMatrix type="matrix" values="0 0 0 0 0 0 0 0 0 0 0 0 0 0 0 0 0 0 0.22 0"/>
<feBlend mode="normal" in2="BackgroundImageFix" result="effect1_dropShadow"/>
<feBlend mode="normal" in="SourceGraphic" in2="effect1_dropShadow" result="shape"/>
</filter>
</defs>
</svg>
