<svg width="82" height="82" viewBox="0 0 82 82" fill="none" xmlns="http://www.w3.org/2000/svg">
<g filter="url(#filter0_d)">
<path d="M41 68C58.1208 68 72 54.1208 72 37C72 19.8792 58.1208 6 41 6C23.8792 6 10 19.8792 10 37C10 54.1208 23.8792 68 41 68Z" fill="#CB9F9F"/>
</g>
<g clip-path="url(#clip0)">
<path d="M41 51.4C48.9529 51.4 55.4 44.9529 55.4 37C55.4 29.0471 48.9529 22.6 41 22.6C33.0471 22.6 26.6 29.0471 26.6 37C26.6 44.9529 33.0471 51.4 41 51.4Z" fill="#EA4C89"/>
<path fill-rule="evenodd" clip-rule="evenodd" d="M41 22C32.7191 22 26 28.7191 26 37C26 45.2809 32.7191 52 41 52C49.2646 52 56 45.2809 56 37C56 28.7191 49.2646 22 41 22ZM50.9078 28.9143C52.6974 31.0944 53.7712 33.8764 53.8037 36.8861C53.3807 36.8048 49.1508 35.9425 44.8883 36.4794C44.7907 36.2679 44.7093 36.0401 44.6117 35.8124C44.3514 35.1942 44.0586 34.5597 43.7657 33.9577C48.4837 32.038 50.6312 29.2722 50.9078 28.9143ZM41 24.2126C44.2538 24.2126 47.231 25.4328 49.4924 27.4338C49.2646 27.7592 47.3286 30.346 42.7733 32.0542C40.6746 28.1985 38.3482 25.0423 37.9903 24.5542C38.9501 24.3265 39.9588 24.2126 41 24.2126ZM35.5499 25.4165C35.8915 25.872 38.1692 29.0445 40.3004 32.8189C34.3134 34.4132 29.026 34.3807 28.4566 34.3807C29.2863 30.4111 31.9707 27.1085 35.5499 25.4165ZM28.18 37.0163C28.18 36.8861 28.18 36.756 28.18 36.6258C28.7332 36.6421 34.948 36.7234 41.3416 34.8037C41.7158 35.5195 42.0575 36.2516 42.3829 36.9837C42.2202 37.0326 42.0412 37.0814 41.8785 37.1301C35.2733 39.2614 31.7592 45.0857 31.4664 45.5738C29.4328 43.3124 28.18 40.3026 28.18 37.0163ZM41 49.82C38.0391 49.82 35.3059 48.8113 33.1421 47.1193C33.3699 46.6475 35.9729 41.6367 43.1963 39.115C43.2289 39.0987 43.2451 39.0987 43.2777 39.0824C45.0835 43.7516 45.8156 47.6724 46.0108 48.795C44.4653 49.462 42.7733 49.82 41 49.82ZM48.1421 47.6237C48.0119 46.8427 47.3287 43.1009 45.6529 38.4968C49.6714 37.8623 53.1855 38.9035 53.6247 39.0499C53.0716 42.6128 51.0217 45.6876 48.1421 47.6237Z" fill="#C32361"/>
</g>
<defs>
<filter id="filter0_d" x="0" y="0" width="82" height="82" filterUnits="userSpaceOnUse" color-interpolation-filters="sRGB">
<feFlood flood-opacity="0" result="BackgroundImageFix"/>
<feColorMatrix in="SourceAlpha" type="matrix" values="0 0 0 0 0 0 0 0 0 0 0 0 0 0 0 0 0 0 127 0"/>
<feOffset dy="4"/>
<feGaussianBlur stdDeviation="5"/>
<feColorMatrix type="matrix" values="0 0 0 0 0 0 0 0 0 0 0 0 0 0 0 0 0 0 0.22 0"/>
<feBlend mode="normal" in2="BackgroundImageFix" result="effect1_dropShadow"/>
<feBlend mode="normal" in="SourceGraphic" in2="effect1_dropShadow" result="shape"/>
</filter>
<clipPath id="clip0">
<rect width="30" height="30" fill="white" transform="translate(26 22)"/>
</clipPath>
</defs>
</svg>
