<svg width="220" height="220" viewBox="0 0 220 220" fill="none" xmlns="http://www.w3.org/2000/svg">
<g filter="url(#filter0_d)">
<rect x="10" y="6" width="200" height="200" fill="#241F4D"/>
<path d="M30.9574 175.6H43.9324V176.525H31.8824V183.825H41.6324V184.75H31.8824V193H30.9574V175.6ZM54.7633 175.6H55.7383L62.8883 193H61.8883L59.5383 187.25H50.9633L48.5883 193H47.6133L54.7633 175.6ZM51.3383 186.35H59.1633L55.2383 176.8L51.3383 186.35ZM68.3691 193V175.6H69.2941V192.075H81.4191V193H68.3691ZM86.675 175.6V187.375L98.475 175.6H99.775L92.5 182.85L99.75 193H98.65L91.85 183.5L86.675 188.675V193H85.75V175.6H86.675ZM110.756 175.225C112.056 175.225 113.256 175.55 114.356 176.2C115.456 176.833 116.323 177.7 116.956 178.8C117.606 179.9 117.931 181.1 117.931 182.4V186.2C117.931 187.5 117.606 188.7 116.956 189.8C116.323 190.9 115.456 191.775 114.356 192.425C113.256 193.058 112.056 193.375 110.756 193.375C109.456 193.375 108.256 193.058 107.156 192.425C106.056 191.775 105.181 190.9 104.531 189.8C103.898 188.7 103.581 187.5 103.581 186.2V182.4C103.581 181.1 103.898 179.9 104.531 178.8C105.181 177.7 106.056 176.833 107.156 176.2C108.256 175.55 109.456 175.225 110.756 175.225ZM104.506 186.2C104.506 187.333 104.781 188.383 105.331 189.35C105.898 190.3 106.656 191.058 107.606 191.625C108.573 192.175 109.623 192.45 110.756 192.45C111.889 192.45 112.931 192.175 113.881 191.625C114.848 191.058 115.606 190.3 116.156 189.35C116.723 188.383 117.006 187.333 117.006 186.2V182.4C117.006 181.267 116.723 180.225 116.156 179.275C115.606 178.308 114.848 177.55 113.881 177C112.931 176.433 111.889 176.15 110.756 176.15C109.623 176.15 108.573 176.433 107.606 177C106.656 177.55 105.898 178.308 105.331 179.275C104.781 180.225 104.506 181.267 104.506 182.4V186.2ZM122.462 193V175.6H123.437L135.587 187.4V175.6H136.512V193H135.587V188.7L123.387 176.8V193H122.462Z" fill="white"/>
</g>
<defs>
<filter id="filter0_d" x="0" y="0" width="220" height="220" filterUnits="userSpaceOnUse" color-interpolation-filters="sRGB">
<feFlood flood-opacity="0" result="BackgroundImageFix"/>
<feColorMatrix in="SourceAlpha" type="matrix" values="0 0 0 0 0 0 0 0 0 0 0 0 0 0 0 0 0 0 127 0"/>
<feOffset dy="4"/>
<feGaussianBlur stdDeviation="5"/>
<feColorMatrix type="matrix" values="0 0 0 0 0 0 0 0 0 0 0 0 0 0 0 0 0 0 0.22 0"/>
<feBlend mode="normal" in2="BackgroundImageFix" result="effect1_dropShadow"/>
<feBlend mode="normal" in="SourceGraphic" in2="effect1_dropShadow" result="shape"/>
</filter>
</defs>
</svg>
