<svg width="82" height="82" viewBox="0 0 82 82" fill="none" xmlns="http://www.w3.org/2000/svg">
<g filter="url(#filter0_d)">
<path d="M41 68C58.1208 68 72 54.1208 72 37C72 19.8792 58.1208 6 41 6C23.8792 6 10 19.8792 10 37C10 54.1208 23.8792 68 41 68Z" fill="#FF7777"/>
<path fill-rule="evenodd" clip-rule="evenodd" d="M49.75 27H44.525C44 25.55 42.625 24.5 41 24.5C39.375 24.5 38 25.55 37.475 27H32.25C30.875 27 29.75 28.125 29.75 29.5V47C29.75 48.375 30.875 49.5 32.25 49.5H49.75C51.125 49.5 52.25 48.375 52.25 47V29.5C52.25 28.125 51.125 27 49.75 27ZM41 27C41.6875 27 42.25 27.5625 42.25 28.25C42.25 28.9375 41.6875 29.5 41 29.5C40.3125 29.5 39.75 28.9375 39.75 28.25C39.75 27.5625 40.3125 27 41 27ZM36 44.5H42.25C42.9375 44.5 43.5 43.9375 43.5 43.25C43.5 42.5625 42.9375 42 42.25 42H36C35.3125 42 34.75 42.5625 34.75 43.25C34.75 43.9375 35.3125 44.5 36 44.5ZM46 39.5H36C35.3125 39.5 34.75 38.9375 34.75 38.25C34.75 37.5625 35.3125 37 36 37H46C46.6875 37 47.25 37.5625 47.25 38.25C47.25 38.9375 46.6875 39.5 46 39.5ZM36 34.5H46C46.6875 34.5 47.25 33.9375 47.25 33.25C47.25 32.5625 46.6875 32 46 32H36C35.3125 32 34.75 32.5625 34.75 33.25C34.75 33.9375 35.3125 34.5 36 34.5Z" fill="white"/>
</g>
<defs>
<filter id="filter0_d" x="0" y="0" width="82" height="82" filterUnits="userSpaceOnUse" color-interpolation-filters="sRGB">
<feFlood flood-opacity="0" result="BackgroundImageFix"/>
<feColorMatrix in="SourceAlpha" type="matrix" values="0 0 0 0 0 0 0 0 0 0 0 0 0 0 0 0 0 0 127 0"/>
<feOffset dy="4"/>
<feGaussianBlur stdDeviation="5"/>
<feColorMatrix type="matrix" values="0 0 0 0 0 0 0 0 0 0 0 0 0 0 0 0 0 0 0.22 0"/>
<feBlend mode="normal" in2="BackgroundImageFix" result="effect1_dropShadow"/>
<feBlend mode="normal" in="SourceGraphic" in2="effect1_dropShadow" result="shape"/>
</filter>
</defs>
</svg>
